<svg width="20" height="16" viewBox="0 0 20 16" fill="none" xmlns="http://www.w3.org/2000/svg">
<path d="M19.7057 13.0147C19.7057 13.4402 19.586 13.8347 19.3943 14.1818L13.2652 7.32425L19.3278 2.01998C19.5636 2.39424 19.7057 2.83388 19.7057 3.30896V13.0147ZM9.99985 8.56938L18.4358 1.18812C18.0896 0.998605 17.6998 0.882385 17.2793 0.882385H2.7204C2.29937 0.882385 1.90942 0.998605 1.56464 1.18812L9.99985 8.56938ZM12.3517 8.12283L10.399 9.83248C10.2848 9.93198 10.1426 9.98166 9.99985 9.98166C9.85702 9.98166 9.7148 9.93198 9.60058 9.83248L7.64745 8.12275L1.44082 15.068C1.81285 15.3014 2.24884 15.4412 2.72036 15.4412H17.2793C17.7507 15.4412 18.1869 15.3014 18.5588 15.068L12.3517 8.12283ZM0.67193 2.01994C0.43613 2.3942 0.293945 2.83384 0.293945 3.30896V13.0147C0.293945 13.4403 0.413086 13.8348 0.605559 14.1819L6.73393 7.32309L0.67193 2.01994Z" fill="#251D1A"/>
</svg>
